<mxfile host="65bd71144e">
    <diagram id="t7lKVFnUWl9lWInkK_nE" name="Página-1">
        <mxGraphModel dx="1754" dy="1806" grid="1" gridSize="10" guides="1" tooltips="1" connect="1" arrows="1" fold="1" page="1" pageScale="1" pageWidth="827" pageHeight="1169" background="#F0F0F0" math="0" shadow="1">
            <root>
                <mxCell id="0"/>
                <mxCell id="1" parent="0"/>
                <mxCell id="4" value="" style="edgeStyle=none;html=1;rounded=0;strokeColor=#141414;" parent="1" source="2" target="3" edge="1">
                    <mxGeometry relative="1" as="geometry"/>
                </mxCell>
                <mxCell id="2" value="Inicio" style="ellipse;whiteSpace=wrap;html=1;rounded=0;fillColor=#e3c800;fontColor=#000000;strokeColor=#171300;" parent="1" vertex="1">
                    <mxGeometry x="235" y="-40" width="110" height="50" as="geometry"/>
                </mxCell>
                <mxCell id="6" style="edgeStyle=none;html=1;entryX=0.5;entryY=0;entryDx=0;entryDy=0;rounded=0;strokeColor=#141414;" parent="1" source="3" target="5" edge="1">
                    <mxGeometry relative="1" as="geometry"/>
                </mxCell>
                <mxCell id="3" value="Precio = 0;&lt;br&gt;Cantidad = 0;&lt;br&gt;Moneda;&lt;br&gt;Cambio;&lt;br&gt;Opcion;" style="rounded=0;whiteSpace=wrap;html=1;fillColor=#e3c800;fontColor=#000000;strokeColor=#171300;" parent="1" vertex="1">
                    <mxGeometry x="230" y="40" width="120" height="70" as="geometry"/>
                </mxCell>
                <mxCell id="8" style="edgeStyle=none;html=1;entryX=0.5;entryY=0;entryDx=0;entryDy=0;rounded=0;strokeColor=#141414;" parent="1" source="5" target="7" edge="1">
                    <mxGeometry relative="1" as="geometry"/>
                </mxCell>
                <mxCell id="5" value="Selecciona Producto:&lt;br&gt;A - $270&lt;br&gt;B - $340&lt;br&gt;C - $390" style="shape=parallelogram;perimeter=parallelogramPerimeter;whiteSpace=wrap;html=1;fixedSize=1;rounded=0;fillColor=#e3c800;fontColor=#000000;strokeColor=#171300;" parent="1" vertex="1">
                    <mxGeometry x="205" y="140" width="170" height="70" as="geometry"/>
                </mxCell>
                <mxCell id="10" value="True" style="edgeStyle=none;html=1;entryX=0.5;entryY=0;entryDx=0;entryDy=0;rounded=0;strokeColor=#141414;" parent="1" source="7" target="9" edge="1">
                    <mxGeometry x="-0.4483" relative="1" as="geometry">
                        <Array as="points">
                            <mxPoint x="440" y="300"/>
                            <mxPoint x="561" y="300"/>
                        </Array>
                        <mxPoint as="offset"/>
                    </mxGeometry>
                </mxCell>
                <mxCell id="14" style="edgeStyle=none;html=1;entryX=0.5;entryY=0;entryDx=0;entryDy=0;rounded=0;strokeColor=#141414;" parent="1" source="7" target="13" edge="1">
                    <mxGeometry relative="1" as="geometry">
                        <Array as="points">
                            <mxPoint x="40" y="300"/>
                        </Array>
                    </mxGeometry>
                </mxCell>
                <mxCell id="17" value="False" style="edgeLabel;html=1;align=center;verticalAlign=middle;resizable=0;points=[];rounded=0;" parent="14" vertex="1" connectable="0">
                    <mxGeometry x="0.2681" relative="1" as="geometry">
                        <mxPoint x="84" as="offset"/>
                    </mxGeometry>
                </mxCell>
                <mxCell id="7" value="¿Es Opcion A || B || C?" style="rhombus;whiteSpace=wrap;html=1;rounded=0;fillColor=#e3c800;fontColor=#000000;strokeColor=#171300;" parent="1" vertex="1">
                    <mxGeometry x="230" y="240" width="120" height="120" as="geometry"/>
                </mxCell>
                <mxCell id="16" value="True" style="edgeStyle=none;html=1;entryX=0;entryY=0.5;entryDx=0;entryDy=0;rounded=0;strokeColor=#141414;" parent="1" source="9" target="15" edge="1">
                    <mxGeometry relative="1" as="geometry"/>
                </mxCell>
                <mxCell id="19" value="False" style="edgeStyle=none;html=1;entryX=0.5;entryY=0;entryDx=0;entryDy=0;rounded=0;strokeColor=#141414;" parent="1" source="9" target="18" edge="1">
                    <mxGeometry relative="1" as="geometry"/>
                </mxCell>
                <mxCell id="9" value="Opcion == A" style="rhombus;whiteSpace=wrap;html=1;rounded=0;fillColor=#e3c800;fontColor=#000000;strokeColor=#171300;" parent="1" vertex="1">
                    <mxGeometry x="520.5" y="330" width="80" height="80" as="geometry"/>
                </mxCell>
                <mxCell id="73" style="edgeStyle=none;html=1;rounded=0;strokeColor=#141414;" parent="1" edge="1">
                    <mxGeometry relative="1" as="geometry">
                        <mxPoint x="30" y="460" as="sourcePoint"/>
                        <mxPoint x="-10" y="1630" as="targetPoint"/>
                        <Array as="points">
                            <mxPoint x="20" y="1510"/>
                            <mxPoint x="-100" y="1510"/>
                            <mxPoint x="-100" y="1630"/>
                        </Array>
                    </mxGeometry>
                </mxCell>
                <mxCell id="13" value="Ingrese un producto correcto" style="rounded=0;whiteSpace=wrap;html=1;fillColor=#e3c800;fontColor=#000000;strokeColor=#171300;" parent="1" vertex="1">
                    <mxGeometry x="-20" y="400" width="120" height="60" as="geometry"/>
                </mxCell>
                <mxCell id="15" value="Precio = 270" style="rounded=0;whiteSpace=wrap;html=1;fillColor=#e3c800;fontColor=#000000;strokeColor=#171300;" parent="1" vertex="1">
                    <mxGeometry x="690.5" y="350" width="90" height="40" as="geometry"/>
                </mxCell>
                <mxCell id="21" value="True" style="edgeStyle=none;html=1;entryX=0;entryY=0.5;entryDx=0;entryDy=0;rounded=0;strokeColor=#141414;" parent="1" source="18" target="20" edge="1">
                    <mxGeometry relative="1" as="geometry"/>
                </mxCell>
                <mxCell id="24" value="False" style="edgeStyle=none;html=1;entryX=1;entryY=0.5;entryDx=0;entryDy=0;rounded=0;strokeColor=#141414;" parent="1" source="18" target="23" edge="1">
                    <mxGeometry relative="1" as="geometry"/>
                </mxCell>
                <mxCell id="26" style="edgeStyle=none;html=1;entryX=0.5;entryY=0;entryDx=0;entryDy=0;rounded=0;strokeColor=#141414;" parent="1" source="18" target="25" edge="1">
                    <mxGeometry relative="1" as="geometry"/>
                </mxCell>
                <mxCell id="18" value="Opcion == B" style="rhombus;whiteSpace=wrap;html=1;rounded=0;fillColor=#e3c800;fontColor=#000000;strokeColor=#171300;" parent="1" vertex="1">
                    <mxGeometry x="520.5" y="500" width="80" height="80" as="geometry"/>
                </mxCell>
                <mxCell id="20" value="Precio = 340" style="rounded=0;whiteSpace=wrap;html=1;fillColor=#e3c800;fontColor=#000000;strokeColor=#171300;" parent="1" vertex="1">
                    <mxGeometry x="680.5" y="520" width="90" height="40" as="geometry"/>
                </mxCell>
                <mxCell id="23" value="Precio = 390" style="rounded=0;whiteSpace=wrap;html=1;fillColor=#e3c800;fontColor=#000000;strokeColor=#171300;" parent="1" vertex="1">
                    <mxGeometry x="365.5" y="520" width="90" height="40" as="geometry"/>
                </mxCell>
                <mxCell id="28" value="True" style="edgeStyle=none;html=1;entryX=0;entryY=0.5;entryDx=0;entryDy=0;rounded=0;strokeColor=#141414;" parent="1" source="25" target="27" edge="1">
                    <mxGeometry relative="1" as="geometry"/>
                </mxCell>
                <mxCell id="49" value="False" style="edgeStyle=none;html=1;entryX=0.5;entryY=0;entryDx=0;entryDy=0;rounded=0;strokeColor=#141414;" parent="1" source="25" target="48" edge="1">
                    <mxGeometry relative="1" as="geometry">
                        <Array as="points">
                            <mxPoint x="265.5" y="685"/>
                            <mxPoint x="265.5" y="740"/>
                        </Array>
                    </mxGeometry>
                </mxCell>
                <mxCell id="25" value="Cantidad &amp;lt; Precio" style="rhombus;whiteSpace=wrap;html=1;rounded=0;fillColor=#e3c800;fontColor=#000000;strokeColor=#171300;" parent="1" vertex="1">
                    <mxGeometry x="500.5" y="630" width="120" height="110" as="geometry"/>
                </mxCell>
                <mxCell id="30" style="edgeStyle=none;html=1;entryX=0.5;entryY=0;entryDx=0;entryDy=0;rounded=0;strokeColor=#141414;" parent="1" source="27" target="29" edge="1">
                    <mxGeometry relative="1" as="geometry"/>
                </mxCell>
                <mxCell id="27" value="Ingresa monedas" style="shape=parallelogram;perimeter=parallelogramPerimeter;whiteSpace=wrap;html=1;fixedSize=1;rounded=0;fillColor=#e3c800;fontColor=#000000;strokeColor=#171300;" parent="1" vertex="1">
                    <mxGeometry x="785.5" y="665" width="130" height="40" as="geometry"/>
                </mxCell>
                <mxCell id="32" value="Case = 10" style="edgeStyle=none;html=1;entryX=0.5;entryY=0;entryDx=0;entryDy=0;rounded=0;strokeColor=#141414;" parent="1" source="29" target="31" edge="1">
                    <mxGeometry relative="1" as="geometry">
                        <Array as="points">
                            <mxPoint x="1020.5" y="800"/>
                        </Array>
                    </mxGeometry>
                </mxCell>
                <mxCell id="34" style="edgeStyle=none;html=1;entryX=0.5;entryY=0;entryDx=0;entryDy=0;rounded=0;strokeColor=#141414;" parent="1" source="29" target="33" edge="1">
                    <mxGeometry relative="1" as="geometry">
                        <Array as="points">
                            <mxPoint x="1155.5" y="800"/>
                            <mxPoint x="1170.5" y="800"/>
                        </Array>
                    </mxGeometry>
                </mxCell>
                <mxCell id="35" value="Case 50" style="edgeLabel;html=1;align=center;verticalAlign=middle;resizable=0;points=[];rounded=0;" parent="34" vertex="1" connectable="0">
                    <mxGeometry x="0.3" y="-5" relative="1" as="geometry">
                        <mxPoint as="offset"/>
                    </mxGeometry>
                </mxCell>
                <mxCell id="37" style="edgeStyle=none;html=1;entryX=0.5;entryY=0;entryDx=0;entryDy=0;rounded=0;strokeColor=#141414;" parent="1" source="29" target="36" edge="1">
                    <mxGeometry relative="1" as="geometry">
                        <Array as="points">
                            <mxPoint x="715.5" y="800"/>
                        </Array>
                    </mxGeometry>
                </mxCell>
                <mxCell id="38" value="Case 100" style="edgeLabel;html=1;align=center;verticalAlign=middle;resizable=0;points=[];rounded=0;" parent="37" vertex="1" connectable="0">
                    <mxGeometry x="-0.1742" y="1" relative="1" as="geometry">
                        <mxPoint as="offset"/>
                    </mxGeometry>
                </mxCell>
                <mxCell id="40" style="edgeStyle=none;html=1;entryX=0.417;entryY=0;entryDx=0;entryDy=0;entryPerimeter=0;rounded=0;strokeColor=#141414;" parent="1" source="29" target="39" edge="1">
                    <mxGeometry relative="1" as="geometry">
                        <Array as="points">
                            <mxPoint x="535.5" y="800"/>
                        </Array>
                    </mxGeometry>
                </mxCell>
                <mxCell id="41" value="Case Default" style="edgeLabel;html=1;align=center;verticalAlign=middle;resizable=0;points=[];rounded=0;" parent="40" vertex="1" connectable="0">
                    <mxGeometry x="0.0985" relative="1" as="geometry">
                        <mxPoint x="-31" as="offset"/>
                    </mxGeometry>
                </mxCell>
                <mxCell id="29" value="Moneda" style="rhombus;whiteSpace=wrap;html=1;rounded=0;fillColor=#e3c800;fontColor=#000000;strokeColor=#171300;" parent="1" vertex="1">
                    <mxGeometry x="810.5" y="760" width="80" height="80" as="geometry"/>
                </mxCell>
                <mxCell id="45" style="edgeStyle=none;html=1;entryX=1;entryY=0.5;entryDx=0;entryDy=0;rounded=0;strokeColor=#141414;" parent="1" source="31" target="42" edge="1">
                    <mxGeometry relative="1" as="geometry">
                        <Array as="points">
                            <mxPoint x="1020.5" y="1020"/>
                        </Array>
                    </mxGeometry>
                </mxCell>
                <mxCell id="31" value="Cantidad += 10" style="rounded=0;whiteSpace=wrap;html=1;fillColor=#e3c800;fontColor=#000000;strokeColor=#171300;" parent="1" vertex="1">
                    <mxGeometry x="965.5" y="860" width="110" height="60" as="geometry"/>
                </mxCell>
                <mxCell id="46" style="edgeStyle=none;html=1;entryX=1;entryY=0.5;entryDx=0;entryDy=0;rounded=0;strokeColor=#141414;" parent="1" source="33" target="42" edge="1">
                    <mxGeometry relative="1" as="geometry">
                        <Array as="points">
                            <mxPoint x="1170.5" y="1020"/>
                        </Array>
                    </mxGeometry>
                </mxCell>
                <mxCell id="33" value="Cantidad += 50" style="rounded=0;whiteSpace=wrap;html=1;fillColor=#e3c800;fontColor=#000000;strokeColor=#171300;" parent="1" vertex="1">
                    <mxGeometry x="1115.5" y="860" width="110" height="60" as="geometry"/>
                </mxCell>
                <mxCell id="43" style="edgeStyle=none;html=1;entryX=0;entryY=0.5;entryDx=0;entryDy=0;rounded=0;strokeColor=#141414;" parent="1" source="36" target="42" edge="1">
                    <mxGeometry relative="1" as="geometry">
                        <Array as="points">
                            <mxPoint x="715.5" y="1020"/>
                        </Array>
                    </mxGeometry>
                </mxCell>
                <mxCell id="36" value="Cantidad += 100" style="rounded=0;whiteSpace=wrap;html=1;fillColor=#e3c800;fontColor=#000000;strokeColor=#171300;" parent="1" vertex="1">
                    <mxGeometry x="655.5" y="860" width="120" height="60" as="geometry"/>
                </mxCell>
                <mxCell id="44" style="edgeStyle=none;html=1;entryX=0;entryY=0.5;entryDx=0;entryDy=0;rounded=0;strokeColor=#141414;" parent="1" source="39" target="42" edge="1">
                    <mxGeometry relative="1" as="geometry">
                        <Array as="points">
                            <mxPoint x="545.5" y="1020"/>
                        </Array>
                    </mxGeometry>
                </mxCell>
                <mxCell id="39" value="Ingrese una moneda correcta" style="rounded=0;whiteSpace=wrap;html=1;fillColor=#e3c800;fontColor=#000000;strokeColor=#171300;" parent="1" vertex="1">
                    <mxGeometry x="485.5" y="860" width="120" height="60" as="geometry"/>
                </mxCell>
                <mxCell id="47" style="edgeStyle=none;html=1;exitX=0.471;exitY=0.888;exitDx=0;exitDy=0;exitPerimeter=0;rounded=0;strokeColor=#141414;" parent="1" source="42" edge="1">
                    <mxGeometry relative="1" as="geometry">
                        <mxPoint x="560.5" y="600" as="targetPoint"/>
                        <Array as="points">
                            <mxPoint x="876" y="1090"/>
                            <mxPoint x="1240.5" y="1090"/>
                            <mxPoint x="1240.5" y="740"/>
                            <mxPoint x="1240.5" y="600"/>
                        </Array>
                    </mxGeometry>
                </mxCell>
                <mxCell id="42" value="Precio del Producto: Precio&lt;br&gt;Ingresado: Cantidad" style="shape=document;whiteSpace=wrap;html=1;boundedLbl=1;rounded=0;fillColor=#e3c800;fontColor=#000000;strokeColor=#171300;" parent="1" vertex="1">
                    <mxGeometry x="795.5" y="980" width="170" height="80" as="geometry"/>
                </mxCell>
                <mxCell id="51" value="True" style="edgeStyle=none;html=1;entryX=0.5;entryY=0;entryDx=0;entryDy=0;rounded=0;strokeColor=#141414;" parent="1" source="48" target="50" edge="1">
                    <mxGeometry relative="1" as="geometry"/>
                </mxCell>
                <mxCell id="48" value="Cantidad &amp;gt; Precio" style="rhombus;whiteSpace=wrap;html=1;rounded=0;fillColor=#e3c800;fontColor=#000000;strokeColor=#171300;" parent="1" vertex="1">
                    <mxGeometry x="210.5" y="830" width="110" height="110" as="geometry"/>
                </mxCell>
                <mxCell id="53" style="edgeStyle=none;html=1;entryX=0.5;entryY=0;entryDx=0;entryDy=0;rounded=0;strokeColor=#141414;" parent="1" source="50" target="52" edge="1">
                    <mxGeometry relative="1" as="geometry"/>
                </mxCell>
                <mxCell id="50" value="Cambio = Cantidad - Precio" style="rounded=0;whiteSpace=wrap;html=1;fillColor=#e3c800;fontColor=#000000;strokeColor=#171300;" parent="1" vertex="1">
                    <mxGeometry x="188" y="980" width="155" height="40" as="geometry"/>
                </mxCell>
                <mxCell id="55" value="True" style="edgeStyle=none;html=1;entryX=0.5;entryY=0;entryDx=0;entryDy=0;rounded=0;strokeColor=#141414;" parent="1" source="52" target="54" edge="1">
                    <mxGeometry relative="1" as="geometry"/>
                </mxCell>
                <mxCell id="62" value="True" style="edgeStyle=none;html=1;entryX=0.5;entryY=0;entryDx=0;entryDy=0;rounded=0;strokeColor=#141414;" parent="1" source="52" target="61" edge="1">
                    <mxGeometry relative="1" as="geometry">
                        <Array as="points">
                            <mxPoint x="438.5" y="1105"/>
                        </Array>
                    </mxGeometry>
                </mxCell>
                <mxCell id="70" style="edgeStyle=none;html=1;entryX=1;entryY=0.5;entryDx=0;entryDy=0;rounded=0;strokeColor=#141414;" parent="1" target="69" edge="1">
                    <mxGeometry relative="1" as="geometry">
                        <mxPoint x="210" y="880" as="sourcePoint"/>
                        <Array as="points">
                            <mxPoint x="160" y="880"/>
                            <mxPoint x="160" y="1630"/>
                        </Array>
                    </mxGeometry>
                </mxCell>
                <mxCell id="71" value="False" style="edgeLabel;html=1;align=center;verticalAlign=middle;resizable=0;points=[];rounded=0;" parent="70" vertex="1" connectable="0">
                    <mxGeometry x="-0.9176" y="-2" relative="1" as="geometry">
                        <mxPoint as="offset"/>
                    </mxGeometry>
                </mxCell>
                <mxCell id="75" value="False" style="edgeStyle=none;html=1;rounded=0;strokeColor=#141414;" parent="1" source="52" edge="1">
                    <mxGeometry relative="1" as="geometry">
                        <mxPoint x="160" y="1105" as="targetPoint"/>
                    </mxGeometry>
                </mxCell>
                <mxCell id="52" value="Cambio &amp;gt; 0" style="rhombus;whiteSpace=wrap;html=1;rounded=0;fillColor=#e3c800;fontColor=#000000;strokeColor=#171300;" parent="1" vertex="1">
                    <mxGeometry x="220.5" y="1060" width="90" height="90" as="geometry"/>
                </mxCell>
                <mxCell id="57" value="True" style="edgeStyle=none;html=1;entryX=0.5;entryY=0;entryDx=0;entryDy=0;rounded=0;strokeColor=#141414;" parent="1" source="54" target="56" edge="1">
                    <mxGeometry relative="1" as="geometry"/>
                </mxCell>
                <mxCell id="54" value="Cambio &amp;gt;= 50" style="rhombus;whiteSpace=wrap;html=1;rounded=0;fillColor=#e3c800;fontColor=#000000;strokeColor=#171300;" parent="1" vertex="1">
                    <mxGeometry x="218" y="1190" width="95" height="90" as="geometry"/>
                </mxCell>
                <mxCell id="59" style="edgeStyle=none;html=1;entryX=0.5;entryY=0;entryDx=0;entryDy=0;rounded=0;strokeColor=#141414;" parent="1" source="56" target="58" edge="1">
                    <mxGeometry relative="1" as="geometry"/>
                </mxCell>
                <mxCell id="56" value="Su cambio: $50" style="shape=document;whiteSpace=wrap;html=1;boundedLbl=1;rounded=0;fillColor=#e3c800;fontColor=#000000;strokeColor=#171300;" parent="1" vertex="1">
                    <mxGeometry x="205.5" y="1330" width="120" height="50" as="geometry"/>
                </mxCell>
                <mxCell id="68" style="edgeStyle=none;html=1;rounded=0;strokeColor=#141414;" parent="1" source="58" edge="1">
                    <mxGeometry relative="1" as="geometry">
                        <mxPoint x="450.5" y="1480" as="targetPoint"/>
                        <Array as="points">
                            <mxPoint x="265.5" y="1480"/>
                        </Array>
                    </mxGeometry>
                </mxCell>
                <mxCell id="58" value="Cambio -= 50" style="rounded=0;whiteSpace=wrap;html=1;fillColor=#e3c800;fontColor=#000000;strokeColor=#171300;" parent="1" vertex="1">
                    <mxGeometry x="205.5" y="1410" width="120" height="30" as="geometry"/>
                </mxCell>
                <mxCell id="64" value="True" style="edgeStyle=none;html=1;entryX=0.5;entryY=0;entryDx=0;entryDy=0;rounded=0;strokeColor=#141414;" parent="1" source="61" target="63" edge="1">
                    <mxGeometry relative="1" as="geometry"/>
                </mxCell>
                <mxCell id="61" value="Cambio &amp;lt; 50" style="rhombus;whiteSpace=wrap;html=1;rounded=0;fillColor=#e3c800;fontColor=#000000;strokeColor=#171300;" parent="1" vertex="1">
                    <mxGeometry x="390.5" y="1190" width="95" height="90" as="geometry"/>
                </mxCell>
                <mxCell id="66" style="edgeStyle=none;html=1;entryX=0.5;entryY=0;entryDx=0;entryDy=0;rounded=0;strokeColor=#141414;" parent="1" source="63" target="65" edge="1">
                    <mxGeometry relative="1" as="geometry"/>
                </mxCell>
                <mxCell id="63" value="Su cambio: $10" style="shape=document;whiteSpace=wrap;html=1;boundedLbl=1;rounded=0;fillColor=#e3c800;fontColor=#000000;strokeColor=#171300;" parent="1" vertex="1">
                    <mxGeometry x="380.5" y="1330" width="120" height="50" as="geometry"/>
                </mxCell>
                <mxCell id="67" style="edgeStyle=none;html=1;exitX=0.5;exitY=1;exitDx=0;exitDy=0;rounded=0;strokeColor=#141414;" parent="1" source="65" edge="1">
                    <mxGeometry relative="1" as="geometry">
                        <mxPoint x="270.5" y="1040" as="targetPoint"/>
                        <Array as="points">
                            <mxPoint x="440.5" y="1480"/>
                            <mxPoint x="550.5" y="1480"/>
                            <mxPoint x="550.5" y="1040"/>
                        </Array>
                    </mxGeometry>
                </mxCell>
                <mxCell id="65" value="Cambio -= 10" style="rounded=0;whiteSpace=wrap;html=1;fillColor=#e3c800;fontColor=#000000;strokeColor=#171300;" parent="1" vertex="1">
                    <mxGeometry x="380.5" y="1410" width="120" height="30" as="geometry"/>
                </mxCell>
                <mxCell id="74" style="edgeStyle=none;html=1;exitX=0.5;exitY=0;exitDx=0;exitDy=0;entryX=0.5;entryY=0;entryDx=0;entryDy=0;rounded=0;strokeColor=#141414;" parent="1" source="69" target="69" edge="1">
                    <mxGeometry relative="1" as="geometry">
                        <mxPoint y="1771" as="targetPoint"/>
                    </mxGeometry>
                </mxCell>
                <mxCell id="69" value="Fin" style="ellipse;whiteSpace=wrap;html=1;rounded=0;fillColor=#e3c800;fontColor=#000000;strokeColor=#171300;" parent="1" vertex="1">
                    <mxGeometry x="-10" y="1590" width="120" height="80" as="geometry"/>
                </mxCell>
                <mxCell id="76" value="&lt;font color=&quot;#050505&quot; style=&quot;font-size: 20px&quot;&gt;Realizado por José Fernando Nicolás Santiago&lt;/font&gt;" style="text;html=1;align=center;verticalAlign=middle;resizable=0;points=[];autosize=1;strokeColor=none;fillColor=none;strokeWidth=5;" vertex="1" parent="1">
                    <mxGeometry x="785.5" y="1500" width="430" height="20" as="geometry"/>
                </mxCell>
            </root>
        </mxGraphModel>
    </diagram>
</mxfile>